<?xml version="1.0" encoding="UTF-8"?>
<svg id="Layer_2" data-name="Layer 2" xmlns="http://www.w3.org/2000/svg" viewBox="0 0 213.7 161.16">
  <defs>
    <style>
      .cls-1 {
        fill: #fff;
      }

      .cls-2 {
        fill: #336;
      }
    </style>
  </defs>
  <g id="Layer_1-2" data-name="Layer 1">
    <path class="cls-2" d="m201.49,31.92c-.4.24-.79.5-1.23.77.12.23.19.4.3.54,3.26,4.39,5.34,9.32,6.73,14.57,1.05,3.97.43,9.89.8,13.97.5,5.52,1.71,9.17,1.41,14.69-.31,5.61-.97,11.2-1.84,16.75-2.15,13.72-5.48,27.16-9.8,40.35-.1.32-.17.64-.26.96-.01.04.03.08.06.2.49.22,1.06.21,1.62.26,2.34.19,4.63.59,6.89,1.2,1.29.34,2.55.79,3.73,1.42.8.43,1.55.94,2.15,1.64.95,1.1,1.23,2.36.76,3.73-.21.62-.49,1.25-.86,1.79-.5.75-2.23,5.52-2.88,6.14-3.84,3.72-6.91,2.76-12.03,4.49-2.26.76-4.56,1.4-6.88,1.9-4.29.94-8.62,1.58-12.97,2.08-6.92.78-13.86,1.2-20.81,1.47-10.43.39-20.87.31-31.3.1-5.05-.1-10.1-.3-15.14-.55-5.66-.28-11.32-.64-16.98-1-4.37-.29-8.75-.6-13.11-.97-4.56-.39-7.33,3.16-11.88,2.7-3.79-.39-9.59-1.72-13.37-2.19-4.58-.58-8.92-4.31-13.5-4.95-4.53-.65-9.03-1.41-13.5-2.38-2.7-.59-5.37-1.28-8.04-2.01-2.21-.6-4.31-1.51-6.32-2.6-1.09-.6-2.11-1.3-3.12-2.01-.74-.53-1.35-1.21-1.8-2.02-.65-1.16-.73-2.37-.05-3.53.38-.65.84-1.3,1.4-1.78.9-.78,1.87-1.49,2.88-2.11,1.91-1.18,3.98-2.02,6.09-2.79.39-.14.78-.29,1.2-.45-.09-.2-.12-.34-.21-.44-1.2-1.34-1.94-2.93-2.54-4.6-.93-2.61-1.5-5.31-1.94-8.04-.85-5.33-1.24-10.69-1.49-16.07-.4-8.39-.36-16.77-.15-25.16.18-6.95-3.21-12.52-2.87-19.47.21-4.38,1.17-9.89,1.48-14.26.2-2.9,3.56-6.03,3.79-8.93.04-.41.01-.83.01-1.33-1.04-.16-2.02-.31-3-.47-2.44-.43-4.86-.99-7.13-1.99-1.04-.46-2.05-1.02-3.01-1.64-.62-.41-1.18-.96-1.66-1.54-1.06-1.3-1.38-2.79-.92-4.43.24-.89.58-1.72,1.11-2.46.66-.93,1.71-4.61,2.49-5.43,2.75-2.89,4.71-5.4,8.32-7.13,3.84-1.84,9.26-3.08,13.37-4.16,5.3-1.4,10.08.34,15.51-.41,4.24-.59,8.49-1.16,12.75-1.61,3.98-.41,7.97-.71,11.97-.97,4.61-.3,9.22-.58,13.84-.74,5.43-.2,10.86-.31,16.29-.36,5.24-.04,10.48.07,15.72.08,1.29,0,2.57-.09,3.86-.18C121.23.16,127.04.01,132.85,0c3.19-.01,6.39.01,9.58.05,5.62.08,11.24.33,16.84.8,4.37.37,8.74.73,13.09,1.24,8.57,1,17.07,2.42,25.43,4.56,2.59.66,5.12,1.48,7.57,2.56,1.44.63,2.84,1.35,4.13,2.25.99.68,1.89,1.45,2.65,2.39,1.64,2.03,1.98,4.3,1.05,6.71-.37.96-.93,1.87-1.51,2.74-.9,1.36-2.06,2.5-3.26,3.59-2.13,1.92-4.47,3.55-6.93,5.03Z"/>
    <g>
      <path class="cls-1" d="m37.6,70.02l.55-22.7-2.93-.07c-1.32-.03-2.04-.79-2.01-2.11s.79-2.04,2.11-2.01l10.38.25c1.32.03,2.04.79,2.01,2.11s-.79,2.04-2.11,2.01l-2.93-.07-.55,22.7c-.03,1.44-.88,2.25-2.32,2.21s-2.25-.88-2.21-2.32Z"/>
      <path class="cls-1" d="m49.06,70.3l.6-24.81c.03-1.32,1-2.24,2.32-2.21s2.24,1,2.21,2.32l-.24,9.72,4.86.12.24-9.72c.03-1.32,1-2.24,2.32-2.21s2.24,1,2.21,2.32l-.6,24.81c-.03,1.32-1,2.24-2.32,2.21s-2.24-1-2.21-2.32l.27-10.96-4.86-.12-.27,10.96c-.03,1.32-1,2.24-2.32,2.21s-2.24-1-2.21-2.32Z"/>
      <path class="cls-1" d="m66.37,70.47l.59-24.31c.03-1.32,1-2.24,2.32-2.21l8.28.2c1.2.03,2.04.91,2.01,2.11s-.91,2.04-2.11,2.01l-6.02-.15-.18,7.62,4.41.11c1.19.03,2.04.92,2.01,2.11s-.92,2.04-2.11,2.01l-4.41-.11-.21,8.86,6.02.15c1.2.03,2.04.92,2.01,2.11s-.91,2.04-2.11,2.01l-8.28-.2c-1.32-.03-2.24-1-2.21-2.32Z"/>
      <path class="cls-1" d="m87.67,63.99c.04-1.85,1.17-3.04,3.09-3,1.68.04,2.99.94,2.93,3.26-.07,2.89,1.18,3.97,3.21,4.02s3.33-.96,3.4-3.97c.08-3.36-1.14-5.53-5.22-9.28-5.21-4.82-6.87-8.16-6.76-12.8.15-6.37,3.54-10,9.74-9.85s9.17,4.22,9.04,9.43c-.05,2.03-1.17,3.04-3.09,3-2.03-.05-2.98-1.4-2.94-3.14.05-2.14-1.08-3.44-3.1-3.49s-3.21,1.02-3.28,3.8c-.07,2.95,1.21,5.13,5.29,8.88,5.21,4.82,6.82,8.1,6.69,13.14-.16,6.6-3.61,10.23-9.86,10.08s-9.29-3.93-9.14-10.07Z"/>
      <path class="cls-1" d="m110.16,70.61l.84-34.51c.04-1.85,1.41-3.15,3.26-3.11s3.15,1.41,3.11,3.26l-.77,31.91,7.93.19c1.68.04,2.87,1.29,2.82,2.96s-1.29,2.87-2.96,2.83l-11.12-.27c-1.85-.04-3.15-1.41-3.11-3.26Z"/>
      <path class="cls-1" d="m130.08,71.1l.83-34.17c.04-1.85,1.41-3.15,3.26-3.11l11.64.28c1.68.04,2.87,1.29,2.83,2.96s-1.29,2.87-2.97,2.83l-8.45-.2-.26,10.71,6.2.15c1.68.04,2.87,1.29,2.83,2.97s-1.29,2.87-2.97,2.82l-6.2-.15-.3,12.45,8.45.2c1.68.04,2.87,1.29,2.83,2.96s-1.29,2.87-2.97,2.83l-11.64-.28c-1.85-.04-3.15-1.41-3.11-3.26Z"/>
      <path class="cls-1" d="m151.1,71.61l.83-34.17c.04-1.85,1.41-3.15,3.26-3.11l11.64.28c1.68.04,2.87,1.29,2.82,2.96s-1.29,2.87-2.96,2.83l-8.46-.2-.26,10.71,6.2.15c1.68.04,2.87,1.29,2.82,2.97s-1.29,2.87-2.96,2.82l-6.2-.15-.3,12.45,8.46.2c1.68.04,2.87,1.29,2.82,2.96s-1.29,2.87-2.96,2.83l-11.64-.28c-1.85-.04-3.15-1.41-3.11-3.26Z"/>
      <path class="cls-1" d="m172.11,72.46l.84-34.51c.05-2.03,1.24-3.16,3.26-3.11l6.2.15c6.37.15,9.41,3.76,9.25,10.25l-.1,4c-.16,6.49-3.37,9.94-9.74,9.79l-3.01-.07-.33,13.67c-.05,2.03-1.24,3.16-3.26,3.11s-3.16-1.23-3.11-3.26Zm9.85-19.23c2.03.05,3.15-.85,3.22-3.75l.12-4.81c.07-2.9-1.01-3.85-3.04-3.9l-3.01-.07-.3,12.45,3.01.07Z"/>
      <path class="cls-1" d="m47.91,121.82l.84-34.51c.05-2.03,1.24-3.16,3.26-3.11l6.25.15c6.6.16,9.36,3.3,9.21,9.55l-.06,2.49c-.1,4.17-1.5,6.8-4.36,7.89v.12c3.16,1.06,4.13,4.1,4.02,8.67l-.15,6.31c-.03,1.1.02,1.68.17,2.38.16.64.21.99.19,1.57-.03,1.39-1.15,2.12-3.06,2.07-2.61-.06-3.79-1.42-3.7-5.07l.19-7.76c.09-3.76-.98-5.01-3.87-5.08l-2.2-.05-.35,14.54c-.05,2.03-1.24,3.16-3.26,3.11s-3.16-1.23-3.11-3.26Zm9.18-20.12c2.37.06,3.85-.95,3.93-4.19l.08-3.13c.07-2.9-.88-4.19-3.14-4.25l-2.9-.07-.28,11.58,2.32.06Z"/>
      <path class="cls-1" d="m71.26,122.04l.83-34.17c.04-1.85,1.41-3.15,3.26-3.11l11.64.28c1.68.04,2.87,1.29,2.82,2.96s-1.29,2.87-2.96,2.83l-8.46-.2-.26,10.71,6.2.15c1.68.04,2.87,1.29,2.83,2.97s-1.29,2.87-2.97,2.82l-6.2-.15-.3,12.45,8.46.2c1.68.04,2.87,1.29,2.82,2.96s-1.29,2.87-2.96,2.83l-11.64-.28c-1.85-.04-3.15-1.41-3.11-3.26Z"/>
      <path class="cls-1" d="m96.17,122.06l-4.3-33.07c-.05-.35-.04-.64-.04-.93.05-1.97,1.24-3.21,3.09-3.17s2.92,1.29,3.11,3.15l3.29,29.4h.12s4.65-29.32,4.65-29.32c.34-2.02,1.46-2.92,3.08-2.88,1.51.04,2.76,1.05,2.7,3.19,0,.35-.07.69-.14,1.04l-5.95,32.83c-.53,2.83-2.07,4.3-4.91,4.23s-4.31-1.61-4.7-4.46Z"/>
      <path class="cls-1" d="m114.39,123.43l.84-34.86c.04-1.85,1.41-3.15,3.26-3.11s3.15,1.41,3.11,3.26l-.84,34.86c-.04,1.85-1.41,3.15-3.26,3.11s-3.15-1.41-3.11-3.26Z"/>
      <path class="cls-1" d="m125.51,123.35l.83-34.17c.04-1.85,1.41-3.15,3.26-3.11l11.64.28c1.68.04,2.87,1.29,2.83,2.96s-1.29,2.87-2.97,2.83l-8.45-.2-.26,10.71,6.2.15c1.68.04,2.87,1.29,2.83,2.97s-1.29,2.87-2.97,2.82l-6.2-.15-.3,12.45,8.45.2c1.68.04,2.87,1.29,2.83,2.96s-1.29,2.87-2.97,2.83l-11.64-.28c-1.85-.04-3.15-1.41-3.11-3.26Z"/>
      <path class="cls-1" d="m148.75,123.22l-2.68-32.98c-.04-.58-.04-.7-.04-.87.04-1.79,1.24-3.21,3.15-3.17,1.56.04,2.76.82,2.88,2.91l2.02,29.08h.12s3.47-28.3,3.47-28.3c.28-2.14,1.82-3.43,3.85-3.38s3.5,1.42,3.68,3.57l2.09,28.44h.12s3.43-29.23,3.43-29.23c.15-1.27,1.1-2.52,2.78-2.48,1.79.04,2.69,1.46,2.65,2.79l-.08.81-4.35,33.62c-.35,2.6-1.78,3.95-4.38,3.89s-4.02-1.49-4.25-4.1l-2.02-24.33h-.12s-3.13,23.97-3.13,23.97c-.36,2.77-1.96,4.18-4.73,4.11s-4.25-1.49-4.47-4.34Z"/>
    </g>
  </g>
</svg>